<svg aria-roledescription="er" role="graphics-document document" viewBox="0 0 297.0193786621094 368" style="max-width: 297.019px; background-color: white;" xmlns:xlink="http://www.w3.org/1999/xlink" xmlns="http://www.w3.org/2000/svg" width="100%" id="my-svg"><style>#my-svg{font-family:"trebuchet ms",verdana,arial,sans-serif;font-size:16px;fill:#ccc;}#my-svg .error-icon{fill:#a44141;}#my-svg .error-text{fill:#ddd;stroke:#ddd;}#my-svg .edge-thickness-normal{stroke-width:2px;}#my-svg .edge-thickness-thick{stroke-width:3.5px;}#my-svg .edge-pattern-solid{stroke-dasharray:0;}#my-svg .edge-pattern-dashed{stroke-dasharray:3;}#my-svg .edge-pattern-dotted{stroke-dasharray:2;}#my-svg .marker{fill:lightgrey;stroke:lightgrey;}#my-svg .marker.cross{stroke:lightgrey;}#my-svg svg{font-family:"trebuchet ms",verdana,arial,sans-serif;font-size:16px;}#my-svg .entityBox{fill:#1f2020;stroke:#81B1DB;}#my-svg .attributeBoxOdd{fill:hsl(0, 0%, 32%);stroke:#81B1DB;}#my-svg .attributeBoxEven{fill:hsl(0, 0%, 22%);stroke:#81B1DB;}#my-svg .relationshipLabelBox{fill:hsl(20, 1.5873015873%, 12.3529411765%);opacity:0.7;background-color:hsl(20, 1.5873015873%, 12.3529411765%);}#my-svg .relationshipLabelBox rect{opacity:0.5;}#my-svg .relationshipLine{stroke:lightgrey;}#my-svg .entityTitleText{text-anchor:middle;font-size:18px;fill:#ccc;}#my-svg #MD_PARENT_START{fill:#f5f5f5!important;stroke:lightgrey!important;stroke-width:1;}#my-svg #MD_PARENT_END{fill:#f5f5f5!important;stroke:lightgrey!important;stroke-width:1;}#my-svg :root{--mermaid-font-family:"trebuchet ms",verdana,arial,sans-serif;}</style><g/><defs><marker orient="auto" markerHeight="240" markerWidth="190" refY="7" refX="0" id="MD_PARENT_START"><path d="M 18,7 L9,13 L1,7 L9,1 Z"/></marker></defs><defs><marker orient="auto" markerHeight="28" markerWidth="20" refY="7" refX="19" id="MD_PARENT_END"><path d="M 18,7 L9,13 L1,7 L9,1 Z"/></marker></defs><defs><marker orient="auto" markerHeight="18" markerWidth="18" refY="9" refX="0" id="ONLY_ONE_START"><path d="M9,0 L9,18 M15,0 L15,18" fill="none" stroke="gray"/></marker></defs><defs><marker orient="auto" markerHeight="18" markerWidth="18" refY="9" refX="18" id="ONLY_ONE_END"><path d="M3,0 L3,18 M9,0 L9,18" fill="none" stroke="gray"/></marker></defs><defs><marker orient="auto" markerHeight="18" markerWidth="30" refY="9" refX="0" id="ZERO_OR_ONE_START"><circle r="6" cy="9" cx="21" fill="white" stroke="gray"/><path d="M9,0 L9,18" fill="none" stroke="gray"/></marker></defs><defs><marker orient="auto" markerHeight="18" markerWidth="30" refY="9" refX="30" id="ZERO_OR_ONE_END"><circle r="6" cy="9" cx="9" fill="white" stroke="gray"/><path d="M21,0 L21,18" fill="none" stroke="gray"/></marker></defs><defs><marker orient="auto" markerHeight="36" markerWidth="45" refY="18" refX="18" id="ONE_OR_MORE_START"><path d="M0,18 Q 18,0 36,18 Q 18,36 0,18 M42,9 L42,27" fill="none" stroke="gray"/></marker></defs><defs><marker orient="auto" markerHeight="36" markerWidth="45" refY="18" refX="27" id="ONE_OR_MORE_END"><path d="M3,9 L3,27 M9,18 Q27,0 45,18 Q27,36 9,18" fill="none" stroke="gray"/></marker></defs><defs><marker orient="auto" markerHeight="36" markerWidth="57" refY="18" refX="18" id="ZERO_OR_MORE_START"><circle r="6" cy="18" cx="48" fill="white" stroke="gray"/><path d="M0,18 Q18,0 36,18 Q18,36 0,18" fill="none" stroke="gray"/></marker></defs><defs><marker orient="auto" markerHeight="36" markerWidth="57" refY="18" refX="39" id="ZERO_OR_MORE_END"><circle r="6" cy="18" cx="9" fill="white" stroke="gray"/><path d="M21,18 Q39,0 57,18 Q39,36 21,18" fill="none" stroke="gray"/></marker></defs><g transform="translate(20,20 )" id="entity-Users-8b6eb67b-f64b-5426-9c24-135a96b8b656"><rect height="328" width="257.0193786621094" y="0" x="0" class="er entityBox"/><text style="dominant-baseline: middle; text-anchor: middle; font-size: 12px;" transform="translate(128.5096893310547,12)" y="0" x="0" id="text-entity-Users-8b6eb67b-f64b-5426-9c24-135a96b8b656" class="er entityLabel">Users</text><rect height="23" width="54.113128662109375" y="24" x="0" class="er attributeBoxOdd"/><text style="dominant-baseline: middle; font-size: 10.2px;" transform="translate(5,35.5)" y="0" x="0" id="text-entity-Users-8b6eb67b-f64b-5426-9c24-135a96b8b656-attr-1-type" class="er entityLabel">String</text><rect height="23" width="179.90625" y="24" x="54.113128662109375" class="er attributeBoxOdd"/><text style="dominant-baseline: middle; font-size: 10.2px;" transform="translate(59.113128662109375,35.5)" y="0" x="0" id="text-entity-Users-8b6eb67b-f64b-5426-9c24-135a96b8b656-attr-1-name" class="er entityLabel">z_id</text><rect height="23" width="23" y="24" x="234.01937866210938" class="er attributeBoxOdd"/><text style="dominant-baseline: middle; font-size: 10.2px;" transform="translate(239.01937866210938,35.5)" y="0" x="0" id="text-entity-Users-8b6eb67b-f64b-5426-9c24-135a96b8b656-attr-1-comment" class="er entityLabel">🗝️</text><rect height="21" width="54.113128662109375" y="47" x="0" class="er attributeBoxEven"/><text style="dominant-baseline: middle; font-size: 10.2px;" transform="translate(5,57.5)" y="0" x="0" id="text-entity-Users-8b6eb67b-f64b-5426-9c24-135a96b8b656-attr-2-type" class="er entityLabel">String</text><rect height="21" width="179.90625" y="47" x="54.113128662109375" class="er attributeBoxEven"/><text style="dominant-baseline: middle; font-size: 10.2px;" transform="translate(59.113128662109375,57.5)" y="0" x="0" id="text-entity-Users-8b6eb67b-f64b-5426-9c24-135a96b8b656-attr-2-name" class="er entityLabel">name</text><rect height="21" width="23" y="47" x="234.01937866210938" class="er attributeBoxEven"/><text style="dominant-baseline: middle; font-size: 10.2px;" transform="translate(239.01937866210938,57.5)" y="0" x="0" id="text-entity-Users-8b6eb67b-f64b-5426-9c24-135a96b8b656-attr-2-comment" class="er entityLabel"/><rect height="21" width="54.113128662109375" y="68" x="0" class="er attributeBoxOdd"/><text style="dominant-baseline: middle; font-size: 10.2px;" transform="translate(5,78.5)" y="0" x="0" id="text-entity-Users-8b6eb67b-f64b-5426-9c24-135a96b8b656-attr-3-type" class="er entityLabel">String</text><rect height="21" width="179.90625" y="68" x="54.113128662109375" class="er attributeBoxOdd"/><text style="dominant-baseline: middle; font-size: 10.2px;" transform="translate(59.113128662109375,78.5)" y="0" x="0" id="text-entity-Users-8b6eb67b-f64b-5426-9c24-135a96b8b656-attr-3-name" class="er entityLabel">document</text><rect height="21" width="23" y="68" x="234.01937866210938" class="er attributeBoxOdd"/><text style="dominant-baseline: middle; font-size: 10.2px;" transform="translate(239.01937866210938,78.5)" y="0" x="0" id="text-entity-Users-8b6eb67b-f64b-5426-9c24-135a96b8b656-attr-3-comment" class="er entityLabel"/><rect height="21" width="54.113128662109375" y="89" x="0" class="er attributeBoxEven"/><text style="dominant-baseline: middle; font-size: 10.2px;" transform="translate(5,99.5)" y="0" x="0" id="text-entity-Users-8b6eb67b-f64b-5426-9c24-135a96b8b656-attr-4-type" class="er entityLabel">String</text><rect height="21" width="179.90625" y="89" x="54.113128662109375" class="er attributeBoxEven"/><text style="dominant-baseline: middle; font-size: 10.2px;" transform="translate(59.113128662109375,99.5)" y="0" x="0" id="text-entity-Users-8b6eb67b-f64b-5426-9c24-135a96b8b656-attr-4-name" class="er entityLabel">email</text><rect height="21" width="23" y="89" x="234.01937866210938" class="er attributeBoxEven"/><text style="dominant-baseline: middle; font-size: 10.2px;" transform="translate(239.01937866210938,99.5)" y="0" x="0" id="text-entity-Users-8b6eb67b-f64b-5426-9c24-135a96b8b656-attr-4-comment" class="er entityLabel"/><rect height="21" width="54.113128662109375" y="110" x="0" class="er attributeBoxOdd"/><text style="dominant-baseline: middle; font-size: 10.2px;" transform="translate(5,120.5)" y="0" x="0" id="text-entity-Users-8b6eb67b-f64b-5426-9c24-135a96b8b656-attr-5-type" class="er entityLabel">String</text><rect height="21" width="179.90625" y="110" x="54.113128662109375" class="er attributeBoxOdd"/><text style="dominant-baseline: middle; font-size: 10.2px;" transform="translate(59.113128662109375,120.5)" y="0" x="0" id="text-entity-Users-8b6eb67b-f64b-5426-9c24-135a96b8b656-attr-5-name" class="er entityLabel">password</text><rect height="21" width="23" y="110" x="234.01937866210938" class="er attributeBoxOdd"/><text style="dominant-baseline: middle; font-size: 10.2px;" transform="translate(239.01937866210938,120.5)" y="0" x="0" id="text-entity-Users-8b6eb67b-f64b-5426-9c24-135a96b8b656-attr-5-comment" class="er entityLabel"/><rect height="23" width="54.113128662109375" y="131" x="0" class="er attributeBoxEven"/><text style="dominant-baseline: middle; font-size: 10.2px;" transform="translate(5,142.5)" y="0" x="0" id="text-entity-Users-8b6eb67b-f64b-5426-9c24-135a96b8b656-attr-6-type" class="er entityLabel">String</text><rect height="23" width="179.90625" y="131" x="54.113128662109375" class="er attributeBoxEven"/><text style="dominant-baseline: middle; font-size: 10.2px;" transform="translate(59.113128662109375,142.5)" y="0" x="0" id="text-entity-Users-8b6eb67b-f64b-5426-9c24-135a96b8b656-attr-6-name" class="er entityLabel">code_forget_password</text><rect height="23" width="23" y="131" x="234.01937866210938" class="er attributeBoxEven"/><text style="dominant-baseline: middle; font-size: 10.2px;" transform="translate(239.01937866210938,142.5)" y="0" x="0" id="text-entity-Users-8b6eb67b-f64b-5426-9c24-135a96b8b656-attr-6-comment" class="er entityLabel">❓</text><rect height="21" width="54.113128662109375" y="154" x="0" class="er attributeBoxOdd"/><text style="dominant-baseline: middle; font-size: 10.2px;" transform="translate(5,164.5)" y="0" x="0" id="text-entity-Users-8b6eb67b-f64b-5426-9c24-135a96b8b656-attr-7-type" class="er entityLabel">Boolean</text><rect height="21" width="179.90625" y="154" x="54.113128662109375" class="er attributeBoxOdd"/><text style="dominant-baseline: middle; font-size: 10.2px;" transform="translate(59.113128662109375,164.5)" y="0" x="0" id="text-entity-Users-8b6eb67b-f64b-5426-9c24-135a96b8b656-attr-7-name" class="er entityLabel">active</text><rect height="21" width="23" y="154" x="234.01937866210938" class="er attributeBoxOdd"/><text style="dominant-baseline: middle; font-size: 10.2px;" transform="translate(239.01937866210938,164.5)" y="0" x="0" id="text-entity-Users-8b6eb67b-f64b-5426-9c24-135a96b8b656-attr-7-comment" class="er entityLabel"/><rect height="23" width="54.113128662109375" y="175" x="0" class="er attributeBoxEven"/><text style="dominant-baseline: middle; font-size: 10.2px;" transform="translate(5,186.5)" y="0" x="0" id="text-entity-Users-8b6eb67b-f64b-5426-9c24-135a96b8b656-attr-8-type" class="er entityLabel">String</text><rect height="23" width="179.90625" y="175" x="54.113128662109375" class="er attributeBoxEven"/><text style="dominant-baseline: middle; font-size: 10.2px;" transform="translate(59.113128662109375,186.5)" y="0" x="0" id="text-entity-Users-8b6eb67b-f64b-5426-9c24-135a96b8b656-attr-8-name" class="er entityLabel">hash_recovery_password</text><rect height="23" width="23" y="175" x="234.01937866210938" class="er attributeBoxEven"/><text style="dominant-baseline: middle; font-size: 10.2px;" transform="translate(239.01937866210938,186.5)" y="0" x="0" id="text-entity-Users-8b6eb67b-f64b-5426-9c24-135a96b8b656-attr-8-comment" class="er entityLabel">❓</text><rect height="23" width="54.113128662109375" y="198" x="0" class="er attributeBoxOdd"/><text style="dominant-baseline: middle; font-size: 10.2px;" transform="translate(5,209.5)" y="0" x="0" id="text-entity-Users-8b6eb67b-f64b-5426-9c24-135a96b8b656-attr-9-type" class="er entityLabel">String</text><rect height="23" width="179.90625" y="198" x="54.113128662109375" class="er attributeBoxOdd"/><text style="dominant-baseline: middle; font-size: 10.2px;" transform="translate(59.113128662109375,209.5)" y="0" x="0" id="text-entity-Users-8b6eb67b-f64b-5426-9c24-135a96b8b656-attr-9-name" class="er entityLabel">hash_verified_email</text><rect height="23" width="23" y="198" x="234.01937866210938" class="er attributeBoxOdd"/><text style="dominant-baseline: middle; font-size: 10.2px;" transform="translate(239.01937866210938,209.5)" y="0" x="0" id="text-entity-Users-8b6eb67b-f64b-5426-9c24-135a96b8b656-attr-9-comment" class="er entityLabel">❓</text><rect height="21" width="54.113128662109375" y="221" x="0" class="er attributeBoxEven"/><text style="dominant-baseline: middle; font-size: 10.2px;" transform="translate(5,231.5)" y="0" x="0" id="text-entity-Users-8b6eb67b-f64b-5426-9c24-135a96b8b656-attr-10-type" class="er entityLabel">Boolean</text><rect height="21" width="179.90625" y="221" x="54.113128662109375" class="er attributeBoxEven"/><text style="dominant-baseline: middle; font-size: 10.2px;" transform="translate(59.113128662109375,231.5)" y="0" x="0" id="text-entity-Users-8b6eb67b-f64b-5426-9c24-135a96b8b656-attr-10-name" class="er entityLabel">verified_email</text><rect height="21" width="23" y="221" x="234.01937866210938" class="er attributeBoxEven"/><text style="dominant-baseline: middle; font-size: 10.2px;" transform="translate(239.01937866210938,231.5)" y="0" x="0" id="text-entity-Users-8b6eb67b-f64b-5426-9c24-135a96b8b656-attr-10-comment" class="er entityLabel"/><rect height="23" width="54.113128662109375" y="242" x="0" class="er attributeBoxOdd"/><text style="dominant-baseline: middle; font-size: 10.2px;" transform="translate(5,253.5)" y="0" x="0" id="text-entity-Users-8b6eb67b-f64b-5426-9c24-135a96b8b656-attr-11-type" class="er entityLabel">DateTime</text><rect height="23" width="179.90625" y="242" x="54.113128662109375" class="er attributeBoxOdd"/><text style="dominant-baseline: middle; font-size: 10.2px;" transform="translate(59.113128662109375,253.5)" y="0" x="0" id="text-entity-Users-8b6eb67b-f64b-5426-9c24-135a96b8b656-attr-11-name" class="er entityLabel">created_at_recovery_password_hash</text><rect height="23" width="23" y="242" x="234.01937866210938" class="er attributeBoxOdd"/><text style="dominant-baseline: middle; font-size: 10.2px;" transform="translate(239.01937866210938,253.5)" y="0" x="0" id="text-entity-Users-8b6eb67b-f64b-5426-9c24-135a96b8b656-attr-11-comment" class="er entityLabel">❓</text><rect height="21" width="54.113128662109375" y="265" x="0" class="er attributeBoxEven"/><text style="dominant-baseline: middle; font-size: 10.2px;" transform="translate(5,275.5)" y="0" x="0" id="text-entity-Users-8b6eb67b-f64b-5426-9c24-135a96b8b656-attr-12-type" class="er entityLabel">DateTime</text><rect height="21" width="179.90625" y="265" x="54.113128662109375" class="er attributeBoxEven"/><text style="dominant-baseline: middle; font-size: 10.2px;" transform="translate(59.113128662109375,275.5)" y="0" x="0" id="text-entity-Users-8b6eb67b-f64b-5426-9c24-135a96b8b656-attr-12-name" class="er entityLabel">created_at</text><rect height="21" width="23" y="265" x="234.01937866210938" class="er attributeBoxEven"/><text style="dominant-baseline: middle; font-size: 10.2px;" transform="translate(239.01937866210938,275.5)" y="0" x="0" id="text-entity-Users-8b6eb67b-f64b-5426-9c24-135a96b8b656-attr-12-comment" class="er entityLabel"/><rect height="21" width="54.113128662109375" y="286" x="0" class="er attributeBoxOdd"/><text style="dominant-baseline: middle; font-size: 10.2px;" transform="translate(5,296.5)" y="0" x="0" id="text-entity-Users-8b6eb67b-f64b-5426-9c24-135a96b8b656-attr-13-type" class="er entityLabel">DateTime</text><rect height="21" width="179.90625" y="286" x="54.113128662109375" class="er attributeBoxOdd"/><text style="dominant-baseline: middle; font-size: 10.2px;" transform="translate(59.113128662109375,296.5)" y="0" x="0" id="text-entity-Users-8b6eb67b-f64b-5426-9c24-135a96b8b656-attr-13-name" class="er entityLabel">updated_at</text><rect height="21" width="23" y="286" x="234.01937866210938" class="er attributeBoxOdd"/><text style="dominant-baseline: middle; font-size: 10.2px;" transform="translate(239.01937866210938,296.5)" y="0" x="0" id="text-entity-Users-8b6eb67b-f64b-5426-9c24-135a96b8b656-attr-13-comment" class="er entityLabel"/><rect height="21" width="54.113128662109375" y="307" x="0" class="er attributeBoxEven"/><text style="dominant-baseline: middle; font-size: 10.2px;" transform="translate(5,317.5)" y="0" x="0" id="text-entity-Users-8b6eb67b-f64b-5426-9c24-135a96b8b656-attr-14-type" class="er entityLabel">Boolean</text><rect height="21" width="179.90625" y="307" x="54.113128662109375" class="er attributeBoxEven"/><text style="dominant-baseline: middle; font-size: 10.2px;" transform="translate(59.113128662109375,317.5)" y="0" x="0" id="text-entity-Users-8b6eb67b-f64b-5426-9c24-135a96b8b656-attr-14-name" class="er entityLabel">deleted</text><rect height="21" width="23" y="307" x="234.01937866210938" class="er attributeBoxEven"/><text style="dominant-baseline: middle; font-size: 10.2px;" transform="translate(239.01937866210938,317.5)" y="0" x="0" id="text-entity-Users-8b6eb67b-f64b-5426-9c24-135a96b8b656-attr-14-comment" class="er entityLabel"/></g></svg>